name ./resultDataOpenSim/trcMotMarkerGrf/sub10/grf-15-01.mot
datacolumns 19
datarows 20
range 0.45200000 0.52800000
endheader

                time	     ground_force_vx	     ground_force_vy	     ground_force_vz	     ground_force_px	     ground_force_py	     ground_force_pz	   l_ground_force_vx	   l_ground_force_vy	   l_ground_force_vz	   l_ground_force_px	   l_ground_force_py	   l_ground_force_pz	     ground_torque_x	     ground_torque_y	     ground_torque_z	   l_ground_torque_x	   l_ground_torque_y	   l_ground_torque_z	
          0.45200000	         35.24037259	        494.48993178	        -38.01214230	         -0.82336344	          0.00000000	          0.06271937	          0.00000000	          0.00000000	          0.00000000	          0.00000000	          0.00000000	          0.00000000	          0.00000000	          5.92281890	          0.00000000	          0.00000000	          0.00000000	          0.00000000	
          0.45600000	         37.23110710	        502.48451041	        -40.79128133	         -0.82266801	          0.00000000	          0.06287415	          0.00000000	          0.00000000	          0.00000000	          0.00000000	          0.00000000	          0.00000000	          0.00000000	          5.65443392	          0.00000000	          0.00000000	          0.00000000	          0.00000000	
          0.46000000	         39.15079199	        510.77193959	        -43.40082740	         -0.82196376	          0.00000000	          0.06296211	          0.00000000	          0.00000000	          0.00000000	          0.00000000	          0.00000000	          0.00000000	          0.00000000	          5.38320760	          0.00000000	          0.00000000	          0.00000000	          0.00000000	
          0.46400000	         41.52110924	        519.32850181	        -45.74575879	         -0.82131997	          0.00000000	          0.06297240	          0.00000000	          0.00000000	          0.00000000	          0.00000000	          0.00000000	          0.00000000	          0.00000000	          5.11537685	          0.00000000	          0.00000000	          0.00000000	          0.00000000	
          0.46800000	         44.80356548	        528.14432865	        -47.75831256	         -0.82080833	          0.00000000	          0.06290719	          0.00000000	          0.00000000	          0.00000000	          0.00000000	          0.00000000	          0.00000000	          0.00000000	          4.85842261	          0.00000000	          0.00000000	          0.00000000	          0.00000000	
          0.47200000	         49.26312608	        537.24915650	        -49.41442223	         -0.82047422	          0.00000000	          0.06278179	          0.00000000	          0.00000000	          0.00000000	          0.00000000	          0.00000000	          0.00000000	          0.00000000	          4.62217475	          0.00000000	          0.00000000	          0.00000000	          0.00000000	
          0.47600000	         54.89222018	        546.71861170	        -50.71060999	         -0.82032388	          0.00000000	          0.06261027	          0.00000000	          0.00000000	          0.00000000	          0.00000000	          0.00000000	          0.00000000	          0.00000000	          4.41870733	          0.00000000	          0.00000000	          0.00000000	          0.00000000	
          0.48000000	         61.41951684	        556.67215474	        -51.63601670	         -0.82032953	          0.00000000	          0.06239479	          0.00000000	          0.00000000	          0.00000000	          0.00000000	          0.00000000	          0.00000000	          0.00000000	          4.26081626	          0.00000000	          0.00000000	          0.00000000	          0.00000000	
          0.48400000	         68.39325918	        567.25840929	        -52.17303975	         -0.82043100	          0.00000000	          0.06213498	          0.00000000	          0.00000000	          0.00000000	          0.00000000	          0.00000000	          0.00000000	          0.00000000	          4.15942535	          0.00000000	          0.00000000	          0.00000000	          0.00000000	
          0.48800000	         75.30893868	        578.61784738	        -52.31912497	         -0.82055427	          0.00000000	          0.06183486	          0.00000000	          0.00000000	          0.00000000	          0.00000000	          0.00000000	          0.00000000	          0.00000000	          4.12076227	          0.00000000	          0.00000000	          0.00000000	          0.00000000	
          0.49200000	         81.74193735	        590.84202004	        -52.11089766	         -0.82063138	          0.00000000	          0.06149729	          0.00000000	          0.00000000	          0.00000000	          0.00000000	          0.00000000	          0.00000000	          0.00000000	          4.14427570	          0.00000000	          0.00000000	          0.00000000	          0.00000000	
          0.49600000	         87.44512918	        603.95463687	        -51.63844265	         -0.82062413	          0.00000000	          0.06112667	          0.00000000	          0.00000000	          0.00000000	          0.00000000	          0.00000000	          0.00000000	          0.00000000	          4.22196309	          0.00000000	          0.00000000	          0.00000000	          0.00000000	
          0.50000000	         92.38625309	        617.91317782	        -51.04056594	         -0.82052924	          0.00000000	          0.06073320	          0.00000000	          0.00000000	          0.00000000	          0.00000000	          0.00000000	          0.00000000	          0.00000000	          4.33925168	          0.00000000	          0.00000000	          0.00000000	          0.00000000	
          0.50400000	         96.72455603	        632.62356193	        -50.48425533	         -0.82035424	          0.00000000	          0.06033398	          0.00000000	          0.00000000	          0.00000000	          0.00000000	          0.00000000	          0.00000000	          0.00000000	          4.47714696	          0.00000000	          0.00000000	          0.00000000	          0.00000000	
          0.50800000	        100.74267061	        647.95574798	        -50.13635968	         -0.82012843	          0.00000000	          0.05994738	          0.00000000	          0.00000000	          0.00000000	          0.00000000	          0.00000000	          0.00000000	          0.00000000	          4.61520708	          0.00000000	          0.00000000	          0.00000000	          0.00000000	
          0.51200000	        104.75700485	        663.73439341	        -50.12846678	         -0.81988431	          0.00000000	          0.05958558	          0.00000000	          0.00000000	          0.00000000	          0.00000000	          0.00000000	          0.00000000	          0.00000000	          4.73489373	          0.00000000	          0.00000000	          0.00000000	          0.00000000	
          0.51600000	        109.03062073	        679.72405620	        -50.52230802	         -0.81963804	          0.00000000	          0.05925697	          0.00000000	          0.00000000	          0.00000000	          0.00000000	          0.00000000	          0.00000000	          0.00000000	          4.82278049	          0.00000000	          0.00000000	          0.00000000	          0.00000000	
          0.52000000	        113.70828278	        695.66481378	        -51.29132547	         -0.81939035	          0.00000000	          0.05896088	          0.00000000	          0.00000000	          0.00000000	          0.00000000	          0.00000000	          0.00000000	          0.00000000	          4.87295577	          0.00000000	          0.00000000	          0.00000000	          0.00000000	
          0.52400000	        118.78671066	        711.35058974	        -52.32251670	         -0.81913138	          0.00000000	          0.05868475	          0.00000000	          0.00000000	          0.00000000	          0.00000000	          0.00000000	          0.00000000	          0.00000000	          4.88791177	          0.00000000	          0.00000000	          0.00000000	          0.00000000	
          0.52800000	        124.11996480	        726.68189360	        -53.43676433	         -0.81884632	          0.00000000	          0.05840520	          0.00000000	          0.00000000	          0.00000000	          0.00000000	          0.00000000	          0.00000000	          0.00000000	          4.87745172	          0.00000000	          0.00000000	          0.00000000	          0.00000000	
